<svg width="10" height="10" viewBox="0 0 10 10" fill="none" xmlns="http://www.w3.org/2000/svg">
<path d="M8.22933 5.00016C8.22933 5.17266 8.08933 5.31266 7.91683 5.31266H5.31266V7.91683C5.31266 8.08933 5.17266 8.22933 5.00016 8.22933C4.82766 8.22933 4.68766 8.08933 4.68766 7.91683V5.31266H2.0835C1.911 5.31266 1.771 5.17266 1.771 5.00016C1.771 4.82766 1.911 4.68766 2.0835 4.68766H4.68766V2.0835C4.68766 1.911 4.82766 1.771 5.00016 1.771C5.17266 1.771 5.31266 1.911 5.31266 2.0835V4.68766H7.91683C8.08933 4.68766 8.22933 4.82766 8.22933 5.00016Z" fill="white"/>
</svg>
