<svg width="12" height="12" viewBox="0 0 12 12" fill="none" xmlns="http://www.w3.org/2000/svg">
<path d="M10.765 10.235L8.84451 8.3145C9.48651 7.553 9.875 6.5715 9.875 5.5C9.875 3.0875 7.9125 1.125 5.5 1.125C3.0875 1.125 1.125 3.0875 1.125 5.5C1.125 7.9125 3.0875 9.875 5.5 9.875C6.5715 9.875 7.55301 9.4865 8.31451 8.8445L10.235 10.765C10.308 10.838 10.404 10.875 10.5 10.875C10.596 10.875 10.692 10.8385 10.765 10.765C10.9115 10.619 10.9115 10.3815 10.765 10.235ZM1.875 5.5C1.875 3.501 3.501 1.875 5.5 1.875C7.499 1.875 9.125 3.501 9.125 5.5C9.125 7.499 7.499 9.125 5.5 9.125C3.501 9.125 1.875 7.499 1.875 5.5Z" fill="#D5D3D3"/>
</svg>
