<svg width="30" height="30" viewBox="0 0 30 30" fill="none" xmlns="http://www.w3.org/2000/svg">
<path d="M26.25 6.5625H21.8012C20.675 6.5625 20.6275 6.42 20.3188 5.495L20.0662 4.73625C19.6825 3.58625 18.6113 2.8125 17.3988 2.8125H12.6012C11.3887 2.8125 10.3162 3.585 9.93375 4.73625L9.68125 5.495C9.3725 6.42125 9.325 6.5625 8.19875 6.5625H3.75C3.2325 6.5625 2.8125 6.9825 2.8125 7.5C2.8125 8.0175 3.2325 8.4375 3.75 8.4375H5.3725L6.33125 22.8112C6.51625 25.5925 8.22126 27.1875 11.0088 27.1875H18.9925C21.7788 27.1875 23.4838 25.5925 23.67 22.8112L24.6288 8.4375H26.25C26.7675 8.4375 27.1875 8.0175 27.1875 7.5C27.1875 6.9825 26.7675 6.5625 26.25 6.5625ZM11.7125 5.32875C11.8412 4.945 12.1975 4.6875 12.6012 4.6875H17.3988C17.8025 4.6875 18.16 4.945 18.2875 5.32875L18.54 6.08749C18.595 6.25124 18.65 6.41 18.71 6.5625H11.2875C11.3475 6.40875 11.4038 6.24999 11.4588 6.08749L11.7125 5.32875ZM21.7975 22.6863C21.6788 24.4775 20.7862 25.3125 18.9912 25.3125H11.0075C9.2125 25.3125 8.32125 24.4788 8.20125 22.6863L7.25125 8.4375H8.1975C8.35375 8.4375 8.48375 8.42126 8.62375 8.41125C8.66625 8.4175 8.705 8.4375 8.74875 8.4375H21.2487C21.2937 8.4375 21.3312 8.4175 21.3737 8.41125C21.5137 8.42126 21.6438 8.4375 21.8 8.4375H22.7463L21.7975 22.6863ZM18.4375 13.75V20C18.4375 20.5175 18.0175 20.9375 17.5 20.9375C16.9825 20.9375 16.5625 20.5175 16.5625 20V13.75C16.5625 13.2325 16.9825 12.8125 17.5 12.8125C18.0175 12.8125 18.4375 13.2325 18.4375 13.75ZM13.4375 13.75V20C13.4375 20.5175 13.0175 20.9375 12.5 20.9375C11.9825 20.9375 11.5625 20.5175 11.5625 20V13.75C11.5625 13.2325 11.9825 12.8125 12.5 12.8125C13.0175 12.8125 13.4375 13.2325 13.4375 13.75Z" fill="#E02B2B"/>
</svg>
